# xmcd
#
# Track frame offsets:
#	150
#	13802
#	25882
#	36137
#	46845
#	57445
#	66932
#	76517
#	86327
#	97865
#	109047
#	120675
#	132637
#	142342
#	155202
#	164010
#	173782
#	185540
#	194750
#	203692
#
# Disc length: 2872 seconds
# Revision: 4
# Processed by: cddbd v1.5.2PL0 Copyright (c) Steve Scherf et al.
# Submitted via: dBpowerAMP V12.0
#
DISCID=1d0b3614
DTITLE=Pee Wee Crayton - Pee Wee's Blues - The Complete Aladdin and Imperial Recordings
DYEAR=1996
DGENRE=Blues
TTITLE0=When it Rains it Pours
TTITLE1=Daybreak
TTITLE2=Wine-O
TTITLE3=Do Unto Others
TTITLE4=Every Dog Has His Day
TTITLE5=Hurry, Hurry
TTITLE6=Eyes Full of Tears
TTITLE7=I Need Your Love
TTITLE8=You Know-Yeah
TTITLE9=Runnin' Wild
TTITLE10=My Idea About You
TTITLE11=I Got News For You
TTITLE12=Baby Don't You Cry
TTITLE13=Don't Break my Heart
TTITLE14=Wondering Why
TTITLE15=Yours Truly
TTITLE16=I Must go on
TTITLE17=Be Faithful
TTITLE18=Blues Before Dawn
TTITLE19=Don't go
EXTD=
EXTT0=
EXTT1=
EXTT2=
EXTT3=
EXTT4=
EXTT5=
EXTT6=
EXTT7=
EXTT8=
EXTT9=
EXTT10=
EXTT11=
EXTT12=
EXTT13=
EXTT14=
EXTT15=
EXTT16=
EXTT17=
EXTT18=
EXTT19=
PLAYORDER=
